<svg width="836" height="153" viewBox="0 0 836 153" fill="none" xmlns="http://www.w3.org/2000/svg">
<path d="M770.1 40.4995H788.6L821.4 94.0995H822.6L821.4 84.5995V40.4995H835.1V112H816.6L783.8 58.3995H782.6L783.8 67.8995V112H770.1V40.4995Z" fill="black"/>
<path d="M717.1 38.1997C740.3 38.1997 757 54.8997 757 76.2997C757 97.6997 740.3 114.4 717.1 114.4C693.9 114.4 677.2 97.6997 677.2 76.2997C677.2 54.8997 693.8 38.1997 717.1 38.1997ZM717.1 101.3C732 101.3 742.7 90.5997 742.7 76.2997C742.7 61.9997 732 51.2997 717.1 51.2997C702.2 51.2997 691.5 61.9997 691.5 76.2997C691.5 90.5997 702.2 101.3 717.1 101.3Z" fill="black"/>
<path d="M650.3 40.4995H664V112H650.3V40.4995Z" fill="black"/>
<path d="M575.8 40.4995H640.8V53.5995H615.2V112H601.5V53.5995H575.8V40.4995Z" fill="black"/>
<path d="M525.1 40.4995H557.5L577.6 112H563.9L559.1 94.6995H523.3L518.5 112H504.8L525.1 40.4995ZM555.6 81.6995L547.9 53.6995H534.8L527.1 81.6995H555.6Z" fill="black"/>
<path d="M441.8 40.4995H506.8V53.5995H481.2V112H467.5V53.5995H441.8V40.4995Z" fill="black"/>
<path d="M388.7 90.5996C389.3 92.6996 390.4 94.6996 391.9 96.2996C394.6 99.1996 399.1 101.9 407.2 101.9C419.1 101.9 423.9 97.0996 423.9 92.3996C423.9 84.7996 412.3 82.9996 400.7 80.4996C389 77.9996 377.5 73.0996 377.5 59.5996C377.5 48.2996 387.6 38.0996 406.7 38.0996C420.1 38.0996 427.8 43.4996 432.2 48.7996C434.8 51.9996 436.6 55.5996 437.7 59.4996H423.4C422.8 57.9996 421.9 56.3996 420.4 55.0996C418 52.7996 413.8 50.5996 406.7 50.5996C395.9 50.5996 391.8 54.1996 391.8 58.8996C391.8 64.2996 398.4 66.7996 406.5 68.3996C420.2 71.0996 438.3 74.4996 438.3 91.5996C438.3 103.5 427.7 114.2 407.3 114.2C392.2 114.2 383.7 108.4 379.2 102.3C376.6 98.7996 374.8 94.7996 374 90.3996H388.7V90.5996Z" fill="black"/>
<path d="M348 76.2997C348 54.1997 330.1 38.1997 305.3 38.1997H273.4V114.5H305.3C330 114.4 348 98.3997 348 76.2997ZM296.1 95.0997V57.4997H304.7C316.6 57.4997 324.1 64.6997 324.1 76.2997C324.1 87.8997 316.7 95.0997 304.7 95.0997H296.1Z" fill="black"/>
<path d="M248.3 87.4997C250.7 86.3997 252.9 84.6997 254.9 82.5997C259.4 77.9997 261.6 72.2997 261.6 65.5997C261.6 49.3997 248.9 38.1997 230.8 38.1997H189.8V114.5H212.5V92.4997H226.4L238.8 114.5H261.7L246.9 88.1997L248.3 87.4997ZM228.6 74.1997H212.6V56.8997H228.6C234.2 56.8997 238.4 60.5997 238.4 65.4997C238.4 70.4997 234.2 74.1997 228.6 74.1997Z" fill="black"/>
<path d="M76.6436 110.532L76.47 110.468L76.2964 110.532L0.5 138.601V114.277L76.4701 86.144L152.5 114.277V138.601L76.6436 110.532Z" fill="black" stroke="black"/>
<path d="M76.4701 111.001L0 139.319L28.3843 153L76.4701 135.197L124.616 153L153 139.319L76.4701 111.001Z" fill="#19C1CE"/>
<path d="M76.2964 42.4679L76.47 42.5321L76.6436 42.4679L152.5 14.3991V38.7233L76.4701 66.8563L0.5 38.7233V14.3992L76.2964 42.4679Z" fill="black" stroke="black"/>
<path d="M76.4701 41.999L153 13.6809L124.616 0L76.4701 17.8034L28.3843 0L0 13.6809L76.4701 41.999Z" fill="#19C1CE"/>
</svg>
